<svg xmlns="http://www.w3.org/2000/svg" xmlns:xlink="http://www.w3.org/1999/xlink" viewBox="0 0 428.72 362.41">
  <defs>
    <style>
      .cls-1 {
        fill: #e34e26;
      }

      .cls-2 {
        fill: #f0662a;
      }

      .cls-3 {
        fill: #ebebeb;
      }

      .cls-4 {
        fill: #fff;
      }

      .cls-5 {
        fill: #1473b6;
      }

      .cls-6 {
        fill: #33a9db;
      }

      .cls-7 {
        fill: #6ecff0;
      }

      .cls-8 {
        fill: #f0dc4f;
      }

      .cls-9 {
        fill: #323330;
      }

      .cls-10 {
        fill: url(#linear-gradient);
      }

      .cls-11 {
        fill: url(#linear-gradient-2);
      }

      .cls-12 {
        isolation: isolate;
        opacity: 0.44;
        fill: url(#radial-gradient);
      }
    </style>
    <linearGradient id="linear-gradient" x1="123.76" y1="112.82" x2="222.65" y2="197.91" gradientTransform="translate(-69.92 68.75) scale(0.56 0.57)" gradientUnits="userSpaceOnUse">
      <stop offset="0" stop-color="#5b9fd3"/>
      <stop offset="1" stop-color="#306a99"/>
    </linearGradient>
    <linearGradient id="linear-gradient-2" x1="261.52" y1="251.51" x2="225.77" y2="200.93" gradientTransform="translate(-69.92 68.75) scale(0.56 0.57)" gradientUnits="userSpaceOnUse">
      <stop offset="0" stop-color="#ffd43c"/>
      <stop offset="1" stop-color="#fee774"/>
    </linearGradient>
    <radialGradient id="radial-gradient" cx="-524.32" cy="10.85" r="26.74" gradientTransform="translate(41.28 110.87) rotate(-90) scale(0.24 1.05)" gradientUnits="userSpaceOnUse">
      <stop offset="0" stop-color="#b8b9b9" stop-opacity="0.5"/>
      <stop offset="1" stop-color="#7f7f7f" stop-opacity="0"/>
    </radialGradient>
  </defs>
  <g id="Layer_2" data-name="Layer 2">
    <g id="Layer_1-2" data-name="Layer 1">
      <path d="M331,36h24v2H333V53h21v1H333V70h22v2H331Zm26.17,0h2.61l11.43,15.84L382.74,36l15.84-20.06L372.51,53.55,386,72h-2.71L371.11,55.15,358.87,72h-2.6L369.8,53.55ZM387,38V36h28v2H402V72h-2V38Zm-86-2h2.42l38.2,57.18-15.8-20.9L303,39.08V72h-2ZM414.22,69.78a.8.8,0,1,0-.8-.8A.79.79,0,0,0,414.22,69.78ZM416,68.1a2.51,2.51,0,0,0,5-.3V62h-1v5.38c0,.9-.38,1.3-1.18,1.3a1.72,1.72,0,0,1-1.2-.68H416Zm6.72-.1c.1,1,1.2,1.88,3,1.88s3-.9,3-2.4c0-1.2-.7-1.8-2.2-2.2l-.9-.2c-1-.2-1.4-.6-1.4-1.1,0-.7.6-1.2,1.6-1.2s1.5.4,1.6,1.22h1.2a2.52,2.52,0,0,0-2.8-2.22c-1.7,0-2.8.9-2.8,2.3,0,1.1.6,1.8,2,2.1l1,.2q1.5.3,1.5,1.2c0,.7-.7,1.2-1.7,1.2a2.3,2.3,0,0,1-1.9-.78Z"/>
      <g>
        <path class="cls-1" d="M171.92,351.17,162.81,250h100L253.7,351.15,212.75,362.4Z"/>
        <path class="cls-2" d="M213,353.53l33.09-9.09L253.88,258H213Z"/>
        <path class="cls-3" d="M213,296H196.05l-1.17-13H213V270H181.21l.3,3.37L184.63,308H213Zm0,31.61-.06,0L199,323.89l-.89-9.89H185.54l1.76,19.48,25.64,7.06.06,0Z"/>
        <path class="cls-4" d="M213,296v12h14.91l-1.41,15.56L213,327.17v12.49l24.82-6.82.18-2,2.85-31.59.29-3.22H213Zm0-25v12h29.25l.24-2.7.55-6.08.29-3.22Z"/>
      </g>
      <g>
        <path class="cls-5" d="M320.09,351.07,311,249H411l-9.11,102.06-40.95,11.35Z"/>
        <path class="cls-6" d="M361,353.39l33.09-9.18L401.88,257H361Z"/>
        <path class="cls-4" d="M361,294h16.8L379,281H361V269h31.51l-.3,3.37L389.12,307H361Z"/>
        <path class="cls-3" d="M361,326.73l-.06,0L347,323l-.89-10H333.55l1.75,19.66,25.64,7.11H361Z"/>
        <path class="cls-4" d="M376.47,306,375,322.77l-14,3.76v13l25.66-7.11.19-2.12L389,306Z"/>
        <path class="cls-3" d="M361,268v13H329.6l-.26-2.92-.59-6.59-.31-3.49Zm0,26v13H346.7l-.26-2.92-.59-6.59-.31-3.49Z"/>
      </g>
      <g>
        <ellipse class="cls-7" cx="201.6" cy="53.18" rx="9.11" ry="9.12"/>
        <path class="cls-7" d="M236.19,38.14c-1.76-.64-3.6-1.28-5.51-1.84.48-1.93.88-3.85,1.2-5.69,1.67-10.56-.16-18-5.28-20.88a9.88,9.88,0,0,0-5.11-1.28c-5.59,0-12.7,4.16-19.89,11.12-7.18-7-14.29-11.12-19.88-11.12a9.94,9.94,0,0,0-5.12,1.28c-5.11,3-6.95,10.4-5.27,20.88.32,1.84.72,3.76,1.2,5.69A55.59,55.59,0,0,0,167,38.14c-10,3.84-15.42,9.12-15.42,15s5.52,11.2,15.42,15c1.76.64,3.59,1.28,5.51,1.84-.48,1.92-.88,3.84-1.2,5.69-1.68,10.56.16,18,5.27,20.88a9.94,9.94,0,0,0,5.12,1.28c5.67,0,12.78-4.16,19.88-11.12,7.19,7,14.3,11.12,19.89,11.12a9.88,9.88,0,0,0,5.11-1.28c5.12-3,7-10.4,5.28-20.88-.32-1.85-.72-3.77-1.2-5.69a56.48,56.48,0,0,0,5.51-1.84c10-3.84,15.41-9.12,15.41-15S246.17,42,236.19,38.14ZM224.37,13.73c3.27,1.92,4.39,7.84,3,16.24a48.83,48.83,0,0,1-1.12,5.29,93.11,93.11,0,0,0-13.17-2,117.17,117.17,0,0,0-8.31-10.4C210.71,17,216.7,13,221.57,13A5.4,5.4,0,0,1,224.37,13.73Zm-9,47.45c-1.44,2.56-3.11,5.12-4.87,7.68-3,.24-5.91.32-9,.32s-6.07-.08-8.94-.32Q190,65,187.87,61.18c-1.52-2.64-3-5.36-4.24-8,1.28-2.64,2.72-5.36,4.24-8s3.11-5.12,4.87-7.68c2.95-.24,5.91-.32,8.94-.32s6.07.08,8.95.32q2.64,3.84,4.79,7.68c1.52,2.64,3,5.36,4.23,8C218.3,55.82,216.94,58.46,215.42,61.18Zm6.63-2.64c1.2,2.8,2.16,5.52,3,8.24-2.72.64-5.59,1.12-8.63,1.52,1-1.52,2-3.12,2.88-4.8S221.17,60.14,222.05,58.54ZM201.6,80.23c-1.91-2.08-3.75-4.32-5.51-6.65,1.84.08,3.68.16,5.51.16s3.68-.08,5.52-.16C205.36,75.91,203.52,78.15,201.6,80.23Zm-14.85-12c-3-.4-5.91-.88-8.63-1.52.88-2.64,1.84-5.44,3-8.24.88,1.6,1.75,3.28,2.71,4.88C184.83,65.1,185.79,66.62,186.75,68.22Zm-5.59-20.4c-1.2-2.8-2.16-5.52-3-8.24,2.72-.64,5.59-1.12,8.63-1.52-1,1.52-2,3.12-2.88,4.8S182,46.22,181.16,47.82ZM201.6,26.13c1.92,2.08,3.76,4.32,5.52,6.64-1.84-.08-3.68-.16-5.52-.16s-3.67.08-5.51.16C197.85,30.45,199.69,28.21,201.6,26.13Zm17.74,16.81-2.88-4.8c3,.4,5.91.88,8.63,1.52-.88,2.64-1.84,5.44-3,8.24C221.17,46.22,220.29,44.54,219.34,42.94ZM175.81,30c-1.36-8.4-.24-14.32,3-16.24a5.4,5.4,0,0,1,2.8-.72c4.79,0,10.78,3.92,16.77,9.84a105.13,105.13,0,0,0-8.31,10.4,106.76,106.76,0,0,0-13.18,2C176.44,33.41,176.12,31.65,175.81,30ZM156.08,53.18c0-3.76,4.55-7.76,12.54-10.72a47.05,47.05,0,0,1,5.11-1.68,116.47,116.47,0,0,0,4.79,12.48,100.7,100.7,0,0,0-4.79,12.4C162.71,62.46,156.08,57.66,156.08,53.18Zm22.76,39.45c-3.27-1.92-4.39-7.84-3-16.24a46,46,0,0,1,1.11-5.29,95,95,0,0,0,13.18,2,114.18,114.18,0,0,0,8.31,10.41c-5.91,5.84-11.9,9.84-16.77,9.84A5.4,5.4,0,0,1,178.84,92.63ZM227.4,76.39c1.36,8.4.24,14.32-3,16.24a5.4,5.4,0,0,1-2.8.72c-4.79,0-10.78-3.92-16.77-9.84a105.59,105.59,0,0,0,8.31-10.41,108.26,108.26,0,0,0,13.17-2C226.76,72.94,227.08,74.71,227.4,76.39Zm7.19-12.49a47.78,47.78,0,0,1-5.11,1.68,118.63,118.63,0,0,0-4.79-12.48,102.32,102.32,0,0,0,4.79-12.4c11,3.2,17.65,8,17.65,12.48C247.13,56.94,242.5,60.94,234.59,63.9Z"/>
      </g>
      <g>
        <path class="cls-8" d="M4,0H104V100H4Z"/>
        <path class="cls-9" d="M95.56,76.21c-.73-4.57-3.71-8.4-12.52-12-3.06-1.41-6.47-2.41-7.49-4.73a5.17,5.17,0,0,1-.18-2.93c.65-2.65,3.82-3.48,6.33-2.72a7,7,0,0,1,4.07,3.77c4.31-2.79,4.3-2.77,7.32-4.69a19.06,19.06,0,0,0-2.42-3.23c-2.59-2.9-6.13-4.4-11.79-4.28l-2.94.38A13.34,13.34,0,0,0,68.85,50c-4.74,5.37-3.39,14.77,2.37,18.64,5.68,4.26,14,5.23,15.08,9.21,1,4.88-3.58,6.46-8.17,5.9-3.39-.71-5.27-2.43-7.31-5.55l-7.59,4.38a16.94,16.94,0,0,0,3.4,4.63c7.25,7.34,25.37,7,28.62-4.14A13.64,13.64,0,0,0,95.56,76.21ZM58.35,46H49l0,24.18c0,5.14.27,9.86-.57,11.3C47,84.33,43.48,84,41.86,83.42a8,8,0,0,1-3.45-3.58,4.26,4.26,0,0,0-.53-.85l-7.61,4.65A15,15,0,0,0,35.79,90,18.14,18.14,0,0,0,49.15,91.6a11.82,11.82,0,0,0,7.55-5.91c2.13-3.93,1.67-8.68,1.65-13.94C58.4,63.18,58.35,54.6,58.35,46Z"/>
      </g>
      <path d="M160,159h7v32.4a46.36,46.36,0,0,1-9.09,1c-8.55,0-13-3.87-13-11.28,0-7.13,4.73-11.77,12-11.77a11.33,11.33,0,0,1,3.05.36Zm0,16.28a7,7,0,0,0-2.36-.36c-3.55,0-5.59,2.18-5.59,6s1.95,5.77,5.54,5.77a17.23,17.23,0,0,0,2.41-.18Z"/>
      <path d="M178,170v16.23c0,5.59-.41,8.27-1.64,10.59s-2.63,3.64-5.73,5.18l-6.5-3.09c3.1-1.46,4.59-2.73,5.55-4.68s1.32-4.32,1.32-10.41V170Zm-7-11h7v7h-7Zm12,12a18.74,18.74,0,0,1,8.68-2.09c3.36,0,5.58,1,6.56,2.82.55,1,.72,2.41.72,5.32v14.22a66.86,66.86,0,0,1-9.36.78c-5.49,0-8-2.05-8-6.6,0-4.91,3.28-7.18,11.32-7.91V176c0-1.27-.66-1.73-2.49-1.73a19.47,19.47,0,0,0-8.51,2.14V171Zm11,11.51c-4.64.45-6.14,1.18-6.14,3,0,1.36.87,2,2.78,2a19,19,0,0,0,3.36-.32Zm9-11.69a43.47,43.47,0,0,1,11.19-1.59c3.66,0,6.29.82,7.87,2.41s1.94,3.13,1.94,6.63V192h-7V178.55c0-2.68-1-3.68-3.6-3.68a11.67,11.67,0,0,0-3.4.5V192h-7Zm23,25.05a16,16,0,0,0,7.48,1.85c4.57,0,6.52-1.85,6.52-6.29v.5a10.12,10.12,0,0,1-4.83,1c-6.51,0-10.67-4.3-10.67-11.11,0-8.45,6.13-13.23,17-13.23a46.56,46.56,0,0,1,9.7,1.07L248.65,175c-2-.39-.15,0-1.65-.2v1.08l1,3v3.82l-1,2.86v1.86c0,6-.5,8.87-2,11.21-2.2,3.43-6,5.12-11.39,5.12a20.17,20.17,0,0,1-7.6-1.37v-6.51ZM240,175h-.42a13.48,13.48,0,0,0-4.05,1c-1.68,1-2.54,2.68-2.54,5.14,0,3.5,1.72,5.5,4.82,5.5a4.47,4.47,0,0,0,2.19-.46v-2.41a20,20,0,0,0,1-2.68v-3.22l-1-2.32V175Zm21.85-5.81c7,0,11.28,4.41,11.28,11.54,0,7.32-4.46,11.91-11.55,11.91s-11.32-4.41-11.32-11.5c0-7.36,4.46-11.95,11.59-11.95ZM261.72,187c2.68,0,4.27-2.23,4.27-6.09s-1.54-6.09-4.23-6.09-4.36,2.22-4.36,6.09S259,187,261.72,187Z"/>
      <g>
        <path class="cls-4" d="M0,280H100v78.09H0Zm71.36,45.61.31-.54a76.21,76.21,0,0,0,4.78-9.62,60.49,60.49,0,0,0,4.19-14.85,23.66,23.66,0,0,0,.11-6.67,8.81,8.81,0,0,0-1.56-4.19,21.33,21.33,0,0,0-3.87-3.9,22.11,22.11,0,0,0-10.09-4.36,28.81,28.81,0,0,0-7.76-.23,32.12,32.12,0,0,0-5.91,1.13.79.79,0,0,1-.34,0c-1.15-.13-2.29-.33-3.44-.38a36.59,36.59,0,0,0-4.8,0,15.75,15.75,0,0,0-6.69,2.13.7.7,0,0,1-.51.06,40,40,0,0,0-9.23-2,24.58,24.58,0,0,0-8,.44,14.86,14.86,0,0,0-7.11,3.8,15.2,15.2,0,0,0-4.17,7.8,28.19,28.19,0,0,0-.59,4.29,28.79,28.79,0,0,0,.06,4.55c.18,1.83.52,3.65.87,5.46a108,108,0,0,0,4.18,15.59,41.57,41.57,0,0,0,4.37,9.3,12.41,12.41,0,0,0,3.31,3.54,6.24,6.24,0,0,0,6.37.73,20.37,20.37,0,0,0,2.09-1.23,5.65,5.65,0,0,0,1.91,1.53,13.78,13.78,0,0,0,9.54.8c.62-.16,1.22-.42,1.84-.63,0,1.39.09,2.78.17,4.17s.16,2.92.3,4.37a21.06,21.06,0,0,0,1.59,6,8.49,8.49,0,0,0,3.26,4.06c1.88,1.23,4,1.24,6.06,1.06a15.67,15.67,0,0,0,4.14-1,10.77,10.77,0,0,0,6-5,23.66,23.66,0,0,0,2.56-9.38c.17-1.63.2-3.27.31-4.9,0-.48.1-1,.15-1.41.86,0,1.68,0,2.49,0s1.63-.13,2.44-.23a16.23,16.23,0,0,0,7.45-2.87,8.52,8.52,0,0,0,2.86-3.07A3.55,3.55,0,0,0,78.11,325a10.6,10.6,0,0,0-3,.26A19.45,19.45,0,0,1,71.36,325.61Z"/>
        <path d="M71.36,325.61a19.45,19.45,0,0,0,3.72-.39,10.6,10.6,0,0,1,3-.26,3.55,3.55,0,0,1,2.82,5.16,8.52,8.52,0,0,1-2.86,3.07,16.23,16.23,0,0,1-7.45,2.87c-.81.1-1.62.19-2.44.23s-1.63,0-2.49,0c0,.44-.12.93-.15,1.41-.11,1.63-.14,3.27-.31,4.9A23.66,23.66,0,0,1,62.67,352a10.77,10.77,0,0,1-6,5,15.67,15.67,0,0,1-4.14,1c-2.09.18-4.18.17-6.06-1.06a8.49,8.49,0,0,1-3.26-4.06,21.06,21.06,0,0,1-1.59-6c-.14-1.45-.22-2.91-.3-4.37s-.12-2.78-.17-4.17c-.62.21-1.22.47-1.84.63a13.78,13.78,0,0,1-9.54-.8,5.65,5.65,0,0,1-1.91-1.53,20.37,20.37,0,0,1-2.09,1.23,6.24,6.24,0,0,1-6.37-.73,12.41,12.41,0,0,1-3.31-3.54,41.57,41.57,0,0,1-4.37-9.3,108,108,0,0,1-4.18-15.59c-.35-1.81-.69-3.63-.87-5.46a28.79,28.79,0,0,1-.06-4.55,28.19,28.19,0,0,1,.59-4.29,15.2,15.2,0,0,1,4.17-7.8,14.86,14.86,0,0,1,7.11-3.8,24.58,24.58,0,0,1,8-.44,40,40,0,0,1,9.23,2,.7.7,0,0,0,.51-.06A15.75,15.75,0,0,1,43,282.07a36.59,36.59,0,0,1,4.8,0c1.15.05,2.29.25,3.44.38a.79.79,0,0,0,.34,0,32.12,32.12,0,0,1,5.91-1.13,28.81,28.81,0,0,1,7.76.23,22.11,22.11,0,0,1,10.09,4.36,21.33,21.33,0,0,1,3.87,3.9,8.81,8.81,0,0,1,1.56,4.19,23.66,23.66,0,0,1-.11,6.67,60.49,60.49,0,0,1-4.19,14.85,76.21,76.21,0,0,1-4.78,9.62Zm-3.24,1.17.16-.26a69.28,69.28,0,0,0,10-24.57,24.15,24.15,0,0,0,.39-7.77,6.67,6.67,0,0,0-1.17-3.29,19.09,19.09,0,0,0-3.39-3.45A21.57,21.57,0,0,0,60.33,283a32.91,32.91,0,0,0-3.57.23,25,25,0,0,0-5.45,1.21,1,1,0,0,1-.41,0c-.36-.06-.73-.16-1.09-.22a22.8,22.8,0,0,0-6.49-.34,15.13,15.13,0,0,0-6.85,2.36.56.56,0,0,1-.38.05,39.79,39.79,0,0,0-9.52-2.2,22.84,22.84,0,0,0-7.42.37,12.44,12.44,0,0,0-9.35,8,19.65,19.65,0,0,0-1.12,4.85,24.92,24.92,0,0,0-.08,5.25c.17,1.68.45,3.36.76,5A113.1,113.1,0,0,0,13,321.74a49.24,49.24,0,0,0,3.87,9.17,13.94,13.94,0,0,0,3.3,4.14,4.49,4.49,0,0,0,4,1.06,5.85,5.85,0,0,0,3.08-2c1.63-1.86,3.25-3.74,4.89-5.6.44-.5.9-1,1.36-1.47a9.76,9.76,0,0,0,4.45,1.2,2,2,0,0,1-.17.36c-.28.36-.59.7-.85,1.07a4.06,4.06,0,0,1-2.45,1.57l-2.42.57a5.22,5.22,0,0,0-2.43,1.09,1.66,1.66,0,0,0-.21,2.33,3.65,3.65,0,0,0,1.5,1.13,11.89,11.89,0,0,0,5.37.92,9.73,9.73,0,0,0,5.43-1.81c.34-.25.67-.53,1-.82v.32c0,4.12,0,8.23.41,12.33a12.42,12.42,0,0,0,1.55,5.18,7.26,7.26,0,0,0,6.93,3.8,13.93,13.93,0,0,0,3.57-.63,10.66,10.66,0,0,0,4.13-2.07,8.59,8.59,0,0,0,2.84-5c.46-2.4.8-4.83,1.13-7.25.31-2.18.54-4.38.81-6.57,0-.29.08-.58.11-.83.69.11,1.32.25,2,.3a20.47,20.47,0,0,0,4.75-.28,13.86,13.86,0,0,0,7-3.31,3.88,3.88,0,0,0,1.25-1.74,1.44,1.44,0,0,0-.9-1.87,3.12,3.12,0,0,0-1.17-.12c-.76.07-1.5.22-2.25.35a17.16,17.16,0,0,1-4.85.24A3.76,3.76,0,0,1,68.12,326.78Z"/>
        <path class="cls-4" d="M68.12,326.78a3.76,3.76,0,0,0,1.87.65,17.16,17.16,0,0,0,4.85-.24c.75-.13,1.49-.28,2.25-.35a3.12,3.12,0,0,1,1.17.12,1.44,1.44,0,0,1,.9,1.87,3.88,3.88,0,0,1-1.25,1.74,13.86,13.86,0,0,1-7,3.31,20.47,20.47,0,0,1-4.75.28c-.64-.05-1.27-.19-2-.3,0,.25-.08.54-.11.83-.27,2.19-.5,4.39-.81,6.57-.33,2.42-.67,4.85-1.13,7.25a8.59,8.59,0,0,1-2.84,5,10.66,10.66,0,0,1-4.13,2.07,13.93,13.93,0,0,1-3.57.63,7.26,7.26,0,0,1-6.93-3.8,12.42,12.42,0,0,1-1.55-5.18c-.38-4.1-.43-8.21-.41-12.33v-.32c-.37.29-.7.57-1,.82a9.73,9.73,0,0,1-5.43,1.81,11.89,11.89,0,0,1-5.37-.92,3.65,3.65,0,0,1-1.5-1.13,1.66,1.66,0,0,1,.21-2.33,5.22,5.22,0,0,1,2.43-1.09l2.42-.57a4.06,4.06,0,0,0,2.45-1.57c.26-.37.57-.71.85-1.07a2,2,0,0,0,.17-.36,9.76,9.76,0,0,1-4.45-1.2c-.46.5-.92,1-1.36,1.47-1.64,1.86-3.26,3.74-4.89,5.6a5.85,5.85,0,0,1-3.08,2,4.49,4.49,0,0,1-4-1.06,13.94,13.94,0,0,1-3.3-4.14A49.24,49.24,0,0,1,13,321.74a113.1,113.1,0,0,1-3.64-14.13c-.31-1.66-.59-3.34-.76-5a24.92,24.92,0,0,1,.08-5.25,19.65,19.65,0,0,1,1.12-4.85,12.44,12.44,0,0,1,9.35-8,22.84,22.84,0,0,1,7.42-.37,39.79,39.79,0,0,1,9.52,2.2.56.56,0,0,0,.38-.05,15.13,15.13,0,0,1,6.85-2.36,22.8,22.8,0,0,1,6.49.34c.36.06.73.16,1.09.22a1,1,0,0,0,.41,0,25,25,0,0,1,5.45-1.21,32.91,32.91,0,0,1,3.57-.23,21.57,21.57,0,0,1,13.83,4.44,19.09,19.09,0,0,1,3.39,3.45,6.67,6.67,0,0,1,1.17,3.29,24.15,24.15,0,0,1-.39,7.77,69.28,69.28,0,0,1-10,24.57Zm-28-.14c.29,0,.53-.07.77-.07a3.88,3.88,0,0,1,.76.12A4.43,4.43,0,0,1,44.89,331c0,.62,0,1.24-.06,1.86,0,4.8-.06,9.6.41,14.39a9.94,9.94,0,0,0,1.43,4.44,5.1,5.1,0,0,0,4.62,2.55,13,13,0,0,0,4.56-.95,6.54,6.54,0,0,0,2.75-1.82,9.2,9.2,0,0,0,1.9-4.78c.23-1.41.41-2.83.61-4.25.16-1.16.3-2.33.45-3.5s.27-2.12.39-3.19.27-2.31.38-3.47c.07-.79,0-1.59.16-2.36a3.64,3.64,0,0,1,2.13-3c.31-.15.63-.27,1-.42-.11-.15-.21-.29-.31-.41a17.89,17.89,0,0,1-2.51-3.86c-.34-.74-.73-1.44-1.13-2.14a51.25,51.25,0,0,1-3.7-7.73,13.88,13.88,0,0,1-1-6.43,5,5,0,0,1,1.82-3.44c1.75-1.38,3.83-1.52,5.94-1.48.44,0,.87.05,1.34.08l-.11-.34a24.6,24.6,0,0,0-7.15-10.07,20.55,20.55,0,0,0-13.37-4.8,16.29,16.29,0,0,0-3.4.35,11.63,11.63,0,0,0-6.07,3.14,16.5,16.5,0,0,0-3.82,6,28.94,28.94,0,0,0-1.6,6.46c-.07.51-.1,1-.16,1.58l.42-.22a14.39,14.39,0,0,1,6.73-1.79,5.34,5.34,0,0,1,5.43,4.19,34.47,34.47,0,0,1,.86,5.27,23.14,23.14,0,0,1,0,4.78,18.16,18.16,0,0,1-1.56,5.49A41.3,41.3,0,0,0,40.11,326.64Zm-5.79-38.73L34,287.8a36.28,36.28,0,0,0-8-1.66,21.31,21.31,0,0,0-6.07.27,10.91,10.91,0,0,0-6,3.24,11.47,11.47,0,0,0-2.76,5.57,27.76,27.76,0,0,0-.5,3.74,21.16,21.16,0,0,0,0,3.56c.16,1.58.45,3.14.74,4.69a104,104,0,0,0,3.73,14.43A45.42,45.42,0,0,0,19,330.45a11.34,11.34,0,0,0,2.33,2.88,2.5,2.5,0,0,0,3.67.1,7.48,7.48,0,0,0,.89-.89c1.62-1.84,3.22-3.68,4.83-5.52.33-.38.69-.75,1-1.11-.52-.57-1-1.07-1.49-1.64a11,11,0,0,1-2.31-7.62c0-.5.1-1,.14-1.5.09-1,.2-2,.24-3s.06-2.27,0-3.4a45.16,45.16,0,0,1-.06-5.7,35.65,35.65,0,0,1,.86-5.23,22.18,22.18,0,0,1,3.54-7.9C33.17,289.23,33.76,288.59,34.32,287.91Zm20.41-2.28v.08l.28.14a23.87,23.87,0,0,1,8.36,6.47,25,25,0,0,1,4.19,6.89,9.43,9.43,0,0,1,.81,2.8,23.14,23.14,0,0,1-.22,3.8c-.1,1.1-.32,2.19-.43,3.29a22.52,22.52,0,0,0,.21,4.64,26.16,26.16,0,0,1,.28,5.16,11.85,11.85,0,0,1-1.44,5c-.26.47-.25.51.21.87.36-.58.72-1.15,1.06-1.74a68.44,68.44,0,0,0,7.66-18.6,35.36,35.36,0,0,0,1-5.77,29.52,29.52,0,0,0,0-4,5,5,0,0,0-1.15-3,18.16,18.16,0,0,0-13.77-6.55,38.22,38.22,0,0,0-4.41.13C56.49,285.29,55.61,285.49,54.73,285.63Zm-12.95,27.6a30.55,30.55,0,0,0-.8-6.83,3.21,3.21,0,0,0-2.62-2.81,7.78,7.78,0,0,0-2.36,0,14.19,14.19,0,0,0-4.93,1.82c-.59.33-1,.72-.73,1.44a.52.52,0,0,1,0,.18c0,1.64.08,3.29.06,4.94,0,1.09-.15,2.18-.26,3.27a15,15,0,0,0-.09,3.35,8.76,8.76,0,0,0,3.28,5.9,7.59,7.59,0,0,0,4.42,1.68.31.31,0,0,0,.39-.27,37.79,37.79,0,0,1,2.06-5.46A16.42,16.42,0,0,0,41.78,313.23Zm23.41,9.12a9.08,9.08,0,0,0,.92-3.57,25,25,0,0,0-.06-2.87c-.08-1.21-.28-2.41-.35-3.62a28,28,0,0,1,0-3.66c.12-1.47.39-2.93.59-4.4.12-.91.09-1-.8-1.07h-.07a11.71,11.71,0,0,0-3.69.18A3.27,3.27,0,0,0,59,306.25a8.12,8.12,0,0,0,.14,2.6A24.23,24.23,0,0,0,61.36,315c.92,1.82,1.92,3.6,2.88,5.41C64.56,321,64.85,321.64,65.19,322.35ZM31.38,334.09v.16a4.78,4.78,0,0,0,.64.32,10.7,10.7,0,0,0,5,.56,7.69,7.69,0,0,0,5.48-3.33,1.43,1.43,0,0,0,.26-.71,2.16,2.16,0,0,0-.87-2c-.82-.61-1.31-.55-1.93.13-.4.44-.78.9-1.15,1.37a5.68,5.68,0,0,1-2.46,2.12c-.92.33-1.86.58-2.8.85C32.82,333.75,32.1,333.91,31.38,334.09ZM76.61,329s-.07,0-.09,0a24.17,24.17,0,0,1-6,.58,5.62,5.62,0,0,1-3-.78,1.55,1.55,0,0,0-1.64-.1h0a1.69,1.69,0,0,0-1.16,1.26c-.09.43-.09.87-.15,1.31a.48.48,0,0,0,.45.61c.76.11,1.52.26,2.28.3a16.11,16.11,0,0,0,2-.12A13.12,13.12,0,0,0,74,330.76,10.86,10.86,0,0,0,76.61,329Z"/>
        <path d="M40.11,326.64a41.3,41.3,0,0,1,2.09-5.54,18.16,18.16,0,0,0,1.56-5.49,23.14,23.14,0,0,0,0-4.78,34.47,34.47,0,0,0-.86-5.27,5.34,5.34,0,0,0-5.43-4.19,14.39,14.39,0,0,0-6.73,1.79l-.42.22c.06-.57.09-1.07.16-1.58a28.94,28.94,0,0,1,1.6-6.46,16.5,16.5,0,0,1,3.82-6A11.63,11.63,0,0,1,42,286.22a16.29,16.29,0,0,1,3.4-.35,20.55,20.55,0,0,1,13.37,4.8,24.6,24.6,0,0,1,7.15,10.07l.11.34c-.47,0-.9-.07-1.34-.08-2.11,0-4.19.1-5.94,1.48a5,5,0,0,0-1.82,3.44,13.88,13.88,0,0,0,1,6.43,51.25,51.25,0,0,0,3.7,7.73c.4.7.79,1.4,1.13,2.14a17.89,17.89,0,0,0,2.51,3.86c.1.12.2.26.31.41-.35.15-.67.27-1,.42a3.64,3.64,0,0,0-2.13,3c-.12.77-.09,1.57-.16,2.36-.11,1.16-.24,2.32-.38,3.47s-.25,2.13-.39,3.19-.29,2.34-.45,3.5c-.2,1.42-.38,2.84-.61,4.25a9.2,9.2,0,0,1-1.9,4.78,6.54,6.54,0,0,1-2.75,1.82,13,13,0,0,1-4.56.95,5.1,5.1,0,0,1-4.62-2.55,9.94,9.94,0,0,1-1.43-4.44c-.47-4.79-.41-9.59-.41-14.39,0-.62.06-1.24.06-1.86a4.43,4.43,0,0,0-3.25-4.27,3.88,3.88,0,0,0-.76-.12C40.64,326.57,40.4,326.62,40.11,326.64Z"/>
        <path d="M34.32,287.91c-.56.68-1.15,1.32-1.66,2a22.18,22.18,0,0,0-3.54,7.9,35.65,35.65,0,0,0-.86,5.23,45.16,45.16,0,0,0,.06,5.7c0,1.13,0,2.27,0,3.4s-.15,2-.24,3c0,.5-.1,1-.14,1.5a11,11,0,0,0,2.31,7.62c.44.57,1,1.07,1.49,1.64-.33.36-.69.73-1,1.11-1.61,1.84-3.21,3.68-4.83,5.52a7.48,7.48,0,0,1-.89.89,2.5,2.5,0,0,1-3.67-.1A11.34,11.34,0,0,1,19,330.45a45.42,45.42,0,0,1-3.85-8.81,104,104,0,0,1-3.73-14.43c-.29-1.55-.58-3.11-.74-4.69a21.16,21.16,0,0,1,0-3.56,27.76,27.76,0,0,1,.5-3.74,11.47,11.47,0,0,1,2.76-5.57,10.91,10.91,0,0,1,6-3.24,21.31,21.31,0,0,1,6.07-.27,36.28,36.28,0,0,1,8,1.66Z"/>
        <path d="M54.73,285.63c.88-.14,1.76-.34,2.65-.4a38.22,38.22,0,0,1,4.41-.13,18.16,18.16,0,0,1,13.77,6.55,5,5,0,0,1,1.15,3,29.52,29.52,0,0,1,0,4,35.36,35.36,0,0,1-1,5.77A68.44,68.44,0,0,1,68.05,323c-.34.59-.7,1.16-1.06,1.74-.46-.36-.47-.4-.21-.87a11.85,11.85,0,0,0,1.44-5,26.16,26.16,0,0,0-.28-5.16,22.52,22.52,0,0,1-.21-4.64c.11-1.1.33-2.19.43-3.29a23.14,23.14,0,0,0,.22-3.8,9.43,9.43,0,0,0-.81-2.8,25,25,0,0,0-4.19-6.89A23.87,23.87,0,0,0,55,285.85l-.28-.14Z"/>
        <path d="M41.78,313.23a16.42,16.42,0,0,1-1.56,7.18,37.79,37.79,0,0,0-2.06,5.46.31.31,0,0,1-.39.27,7.59,7.59,0,0,1-4.42-1.68,8.76,8.76,0,0,1-3.28-5.9,15,15,0,0,1,.09-3.35c.11-1.09.24-2.18.26-3.27,0-1.65,0-3.3-.06-4.94a.52.52,0,0,0,0-.18c-.23-.72.14-1.11.73-1.44A14.19,14.19,0,0,1,36,303.56a7.78,7.78,0,0,1,2.36,0A3.21,3.21,0,0,1,41,306.4,30.55,30.55,0,0,1,41.78,313.23Zm-4.22-8.64a8.52,8.52,0,0,0-1.16.29.7.7,0,0,0-.4,1,2.19,2.19,0,0,0,3.54.8c.65-.57.58-1.26-.21-1.6A13.67,13.67,0,0,0,37.56,304.59Z"/>
        <path d="M65.19,322.35c-.34-.71-.63-1.35-1-2-1-1.81-2-3.59-2.88-5.41a24.23,24.23,0,0,1-2.24-6.13,8.12,8.12,0,0,1-.14-2.6,3.27,3.27,0,0,1,2.72-2.92,11.71,11.71,0,0,1,3.69-.18h.07c.89.12.92.16.8,1.07-.2,1.47-.47,2.93-.59,4.4a28,28,0,0,0,0,3.66c.07,1.21.27,2.41.35,3.62a25,25,0,0,1,.06,2.87A9.08,9.08,0,0,1,65.19,322.35ZM62.78,304a15.42,15.42,0,0,0-1.74.53c-.58.24-.64.76-.21,1.22a2,2,0,0,0,3.39-.72.52.52,0,0,0-.32-.74A8.55,8.55,0,0,0,62.78,304Z"/>
        <path d="M31.38,334.09c.72-.18,1.44-.34,2.16-.53.94-.27,1.88-.52,2.8-.85a5.68,5.68,0,0,0,2.46-2.12c.37-.47.75-.93,1.15-1.37.62-.68,1.11-.74,1.93-.13a2.16,2.16,0,0,1,.87,2,1.43,1.43,0,0,1-.26.71A7.69,7.69,0,0,1,37,335.13a10.7,10.7,0,0,1-5-.56,4.78,4.78,0,0,1-.64-.32Z"/>
        <path d="M76.61,329a10.86,10.86,0,0,1-2.6,1.79A13.12,13.12,0,0,1,69.17,332a16.11,16.11,0,0,1-2,.12c-.76,0-1.52-.19-2.28-.3a.48.48,0,0,1-.45-.61c.06-.44.06-.88.15-1.31a1.69,1.69,0,0,1,1.16-1.26h0a1.55,1.55,0,0,1,1.64.1,5.62,5.62,0,0,0,3,.78,24.17,24.17,0,0,0,6-.58S76.56,329,76.61,329Z"/>
        <path class="cls-4" d="M37.56,304.59a13.67,13.67,0,0,1,1.77.53c.79.34.86,1,.21,1.6a2.19,2.19,0,0,1-3.54-.8.7.7,0,0,1,.4-1A8.52,8.52,0,0,1,37.56,304.59Zm.48,2.33a1.84,1.84,0,0,0,1.34-.65c.22-.26.21-.49-.08-.67a3,3,0,0,0-.8-.34,2.8,2.8,0,0,0-1.81,0c-.36.13-.43.3-.24.63A2,2,0,0,0,38,306.92Z"/>
        <path class="cls-4" d="M62.78,304a8.55,8.55,0,0,1,1.12.29.52.52,0,0,1,.32.74,2,2,0,0,1-3.39.72c-.43-.46-.37-1,.21-1.22A15.42,15.42,0,0,1,62.78,304Z"/>
        <path d="M38,306.92a2,2,0,0,1-1.59-1.07c-.19-.33-.12-.5.24-.63a2.8,2.8,0,0,1,1.81,0,3,3,0,0,1,.8.34c.29.18.3.41.08.67A1.84,1.84,0,0,1,38,306.92Zm.28-.24c.17-.11.51-.3.83-.52s.16-.29,0-.41a3.29,3.29,0,0,0-2.3-.31c-.2,0-.23.16-.15.34A2,2,0,0,0,38.32,306.68Z"/>
        <path class="cls-4" d="M38.32,306.68a2,2,0,0,1-1.66-.9c-.08-.18,0-.3.15-.34a3.29,3.29,0,0,1,2.3.31c.2.12.22.29,0,.41S38.49,306.57,38.32,306.68Z"/>
      </g>
      <path class="cls-10" d="M52,129.09a69.23,69.23,0,0,0-11.71,1C29.88,132,28,135.81,28,142.94V153H53v3H19.13C12,156,5.71,160.3,3.75,168.49c-2.26,9.38-2.36,15.23,0,25C5.5,200.81,9.68,206,16.84,206H25V194.56A15.91,15.91,0,0,1,40.65,179H64.74A12.4,12.4,0,0,0,77,166.45V142.94c0-6.69-5.61-11.72-12.26-12.84A76.51,76.51,0,0,0,52,129.09Zm-13.29,8A4.71,4.71,0,1,1,34,141.83,4.68,4.68,0,0,1,38.68,137.11Z"/>
      <path class="cls-11" d="M80,156v11.35A15.84,15.84,0,0,1,64.57,183H40.26A12.55,12.55,0,0,0,28,195.55v23.51c0,6.7,5.78,10.63,12.26,12.55a40.73,40.73,0,0,0,24.48,0c6.17-1.8,12.26-5.42,12.26-12.55V209H52v-3H89.35c7.25,0,10-5,12.47-12.49,2.6-7.71,2.49-15.13,0-25C100,161.36,96.61,156,89.35,156ZM66.45,215.48a4.71,4.71,0,1,1-4.63,4.69A4.66,4.66,0,0,1,66.45,215.48Z"/>
      <path class="cls-12" d="M86,236.89c0,3.54-14.82,6.42-33.09,6.42s-33.09-2.88-33.09-6.42,14.81-6.42,33.09-6.42S86,233.35,86,236.89Z"/>
    </g>
  </g>
</svg>
